<svg width="35" height="35" viewBox="0 0 35 35" fill="none" xmlns="http://www.w3.org/2000/svg">
<path d="M17.3855 2.88098C21.2381 2.88098 24.4055 5.9084 24.5663 9.74446H24.5287C24.5332 9.85596 24.5118 9.967 24.4661 10.0689H24.6906C26.4401 10.0689 28.2721 11.2815 29.0067 14.2088L29.0866 14.5542L30.1919 23.4596C30.9874 29.1395 27.8798 31.5281 23.6408 31.6292L23.3565 31.6326H11.4391C7.13098 31.6326 3.81128 30.0627 4.54119 23.846L4.59096 23.4596L5.70902 14.5542C6.26033 11.4018 8.11117 10.1584 9.89451 10.0736L10.0923 10.0689H10.2047C10.1857 9.96157 10.1857 9.85177 10.2047 9.74446C10.3655 5.9084 13.5328 2.88098 17.3855 2.88098ZM13.2051 14.855C12.5034 14.855 11.9346 15.4405 11.9346 16.1627C11.9346 16.8849 12.5034 17.4704 13.2051 17.4704C13.9068 17.4704 14.4756 16.8849 14.4756 16.1627L14.4657 15.9987C14.3873 15.3539 13.8528 14.855 13.2051 14.855ZM21.527 14.855C20.8253 14.855 20.2565 15.4405 20.2565 16.1627C20.2565 16.8849 20.8253 17.4704 21.527 17.4704C22.2287 17.4704 22.7975 16.8849 22.7975 16.1627C22.7975 15.4405 22.2287 14.855 21.527 14.855ZM17.3291 4.75326C14.5631 4.75326 12.3207 6.9879 12.3207 9.74446C12.3397 9.85177 12.3397 9.96157 12.3207 10.0689H22.4001C22.3601 9.9653 22.3389 9.85544 22.3375 9.74446C22.3375 6.9879 20.0952 4.75326 17.3291 4.75326Z" fill="#EFF2F4"/>
</svg>
