<svg width="35" height="35" viewBox="0 0 35 35" fill="none" xmlns="http://www.w3.org/2000/svg">
<path d="M11.5129 19.3657C13.5399 19.3657 15.1644 21.006 15.1644 23.0473V27.948C15.1644 29.975 13.5399 31.6283 11.5129 31.6283H6.6539C4.64128 31.6283 3.00244 29.975 3.00244 27.948V23.0473C3.00244 21.006 4.64128 19.3657 6.6539 19.3657H11.5129ZM28.1027 19.3657C30.1153 19.3657 31.7542 21.006 31.7542 23.0473V27.948C31.7542 29.975 30.1153 31.6283 28.1027 31.6283H23.2437C21.2167 31.6283 19.5923 29.975 19.5923 27.948V23.0473C19.5923 21.006 21.2167 19.3657 23.2437 19.3657H28.1027ZM11.5129 2.87708C13.5399 2.87708 15.1644 4.53029 15.1644 6.55872V11.4594C15.1644 13.5008 13.5399 15.1396 11.5129 15.1396H6.6539C4.64128 15.1396 3.00244 13.5008 3.00244 11.4594V6.55872C3.00244 4.53029 4.64128 2.87708 6.6539 2.87708H11.5129ZM28.1027 2.87708C30.1153 2.87708 31.7542 4.53029 31.7542 6.55872V11.4594C31.7542 13.5008 30.1153 15.1396 28.1027 15.1396H23.2437C21.2167 15.1396 19.5923 13.5008 19.5923 11.4594V6.55872C19.5923 4.53029 21.2167 2.87708 23.2437 2.87708H28.1027Z" fill="#EFF2F4"/>
</svg>
