<svg width="35" height="35" viewBox="0 0 35 35" fill="none" xmlns="http://www.w3.org/2000/svg">
<path d="M17.4071 2.87329C25.5726 2.87329 31.7542 9.56808 31.7542 17.2275C31.7542 26.1107 24.5088 31.6249 17.3784 31.6249C15.0207 31.6249 12.4043 30.9914 10.3055 29.7532C9.57231 29.3069 8.95415 28.9758 8.16348 29.2349L5.25956 30.0988C4.5264 30.3291 3.86511 29.7532 4.08075 28.9758L5.04393 25.7508C5.20206 25.3044 5.17331 24.8293 4.9433 24.455C3.70698 22.1802 3.00256 19.6895 3.00256 17.2707C3.00256 9.69766 9.05478 2.87329 17.4071 2.87329ZM23.9769 15.4422C22.9562 15.4422 22.1368 16.2629 22.1368 17.2851C22.1368 18.2929 22.9562 19.128 23.9769 19.128C24.9975 19.128 25.817 18.2929 25.817 17.2851C25.817 16.2629 24.9975 15.4422 23.9769 15.4422ZM17.3496 15.4422C16.3433 15.4278 15.5095 16.2629 15.5095 17.2707C15.5095 18.2929 16.3289 19.1136 17.3496 19.128C18.3703 19.128 19.1897 18.2929 19.1897 17.2851C19.1897 16.2629 18.3703 15.4422 17.3496 15.4422ZM10.7224 15.4422C9.70169 15.4422 8.88227 16.2629 8.88227 17.2851C8.88227 18.2929 9.71606 19.128 10.7224 19.128C11.7431 19.1136 12.5625 18.2929 12.5625 17.2851C12.5625 16.2629 11.7431 15.4422 10.7224 15.4422Z" fill="#EFF2F4"/>
</svg>
