<svg width="35" height="35" viewBox="0 0 35 35" fill="none" xmlns="http://www.w3.org/2000/svg">
<path d="M23.4033 2.86938C27.844 2.86938 30.3166 5.42828 30.3166 9.8129V24.6631C30.3166 29.1196 27.844 31.621 23.4033 31.621H11.3549C6.98467 31.621 4.44016 29.1196 4.44016 24.6631V9.8129C4.44016 5.42828 6.98467 2.86938 11.3549 2.86938H23.4033ZM11.7431 22.6217C11.3118 22.5786 10.8949 22.7799 10.6649 23.1536C10.4349 23.513 10.4349 23.9874 10.6649 24.3612C10.8949 24.7206 11.3118 24.9362 11.7431 24.8787H23.0137C23.5873 24.8212 24.02 24.331 24.02 23.7574C24.02 23.168 23.5873 22.6792 23.0137 22.6217H11.7431ZM23.0137 16.0649H11.7431C11.1235 16.0649 10.6218 16.5695 10.6218 17.1877C10.6218 17.8058 11.1235 18.309 11.7431 18.309H23.0137C23.6319 18.309 24.135 17.8058 24.135 17.1877C24.135 16.5695 23.6319 16.0649 23.0137 16.0649ZM16.04 9.55413H11.7431V9.56851C11.1235 9.56851 10.6218 10.0717 10.6218 10.6898C10.6218 11.308 11.1235 11.8111 11.7431 11.8111H16.04C16.6596 11.8111 17.1627 11.308 17.1627 10.674C17.1627 10.0573 16.6596 9.55413 16.04 9.55413Z" fill="#EFF2F4"/>
</svg>
