<svg width="35" height="36" viewBox="0 0 35 36" fill="none" xmlns="http://www.w3.org/2000/svg">
<path d="M24.0851 3.87655C26.1531 3.7473 28.1924 4.46535 29.729 5.87272C31.1364 7.40934 31.8544 9.4486 31.7395 11.5309V24.9441C31.8688 27.0264 31.1364 29.0657 29.7434 30.6023C28.2067 32.0096 26.1531 32.7277 24.0851 32.5984H10.6719C8.58951 32.7277 6.55024 32.0096 5.01361 30.6023C3.60622 29.0657 2.88817 27.0264 3.01742 24.9441V11.5309C2.88817 9.4486 3.60622 7.40934 5.01361 5.87272C6.55024 4.46535 8.58951 3.7473 10.6719 3.87655H24.0851ZM23.7117 10.4395C22.8213 9.54913 21.3852 9.54913 20.4948 10.4395L19.5326 11.416C19.389 11.5597 19.389 11.8038 19.5326 11.9474C19.5326 11.9474 19.5608 11.9754 19.611 12.0253L19.9643 12.3766C20.1686 12.5799 20.4236 12.8338 20.6797 13.0891L21.5482 13.9571C21.7294 14.1391 21.8496 14.2611 21.8591 14.2739C22.0171 14.4462 22.1176 14.676 22.1176 14.9345C22.1176 15.4515 21.7012 15.8823 21.1698 15.8823C20.9257 15.8823 20.6959 15.7818 20.5379 15.6238L18.1396 13.2399C18.0247 13.125 17.8237 13.125 17.7088 13.2399L10.8586 20.0901C10.3846 20.564 10.1118 21.1959 10.0974 21.8708L10.0113 25.2744C10.0113 25.4611 10.0687 25.6334 10.198 25.7626C10.3272 25.8919 10.4995 25.9637 10.6862 25.9637H14.0611C14.7504 25.9637 15.411 25.6908 15.9137 25.2026L25.5786 15.5089C26.4547 14.6185 26.4547 13.1824 25.5786 12.3064L23.7117 10.4395Z" fill="white"/>
</svg>
