<svg width="35" height="35" viewBox="0 0 35 35" fill="none" xmlns="http://www.w3.org/2000/svg">
<path d="M26.8105 20.1717C29.5419 20.1717 31.7542 22.3467 31.7542 25.0302C31.7542 27.7121 29.5419 29.8872 26.8105 29.8872C24.0807 29.8872 21.8669 27.7121 21.8669 25.0302C21.8669 22.3467 24.0807 20.1717 26.8105 20.1717ZM14.6229 22.9583C15.8193 22.9583 16.7905 23.9124 16.7905 25.0878C16.7905 26.2617 15.8193 27.2174 14.6229 27.2174H5.1701C3.97372 27.2174 3.00256 26.2617 3.00256 25.0878C3.00256 23.9124 3.97372 22.9583 5.1701 22.9583H14.6229ZM7.94622 4.3302C10.6776 4.3302 12.8899 6.50524 12.8899 9.18715C12.8899 11.8706 10.6776 14.0457 7.94622 14.0457C5.21643 14.0457 3.00256 11.8706 3.00256 9.18715C3.00256 6.50524 5.21643 4.3302 7.94622 4.3302ZM29.5882 7.0592C30.783 7.0592 31.7542 8.01332 31.7542 9.18715C31.7542 10.3626 30.783 11.3167 29.5882 11.3167H20.1354C18.939 11.3167 17.9679 10.3626 17.9679 9.18715C17.9679 8.01332 18.939 7.0592 20.1354 7.0592H29.5882Z" fill="#EFF2F4"/>
</svg>
