<svg width="35" height="36" viewBox="0 0 35 36" fill="none" xmlns="http://www.w3.org/2000/svg">
<path d="M13.2594 30.846V26.4503C13.2594 25.3281 14.1757 24.4185 15.306 24.4185H19.4379C19.9807 24.4185 20.5012 24.6326 20.8851 25.0136C21.2689 25.3946 21.4845 25.9114 21.4845 26.4503V30.846C21.4811 31.3125 21.6653 31.7611 21.9964 32.0921C22.3275 32.4232 22.778 32.6094 23.2479 32.6094H26.0669C27.3834 32.6128 28.6472 32.096 29.5794 31.173C30.5115 30.25 31.0354 28.9967 31.0354 27.6897V15.167C31.0354 14.1113 30.564 13.1098 29.7482 12.4325L20.1587 4.8294C18.4906 3.49633 16.1005 3.53937 14.4822 4.93163L5.11153 12.4325C4.25722 13.0899 3.74661 14.0943 3.72137 15.167V27.677C3.72137 30.4011 5.94586 32.6094 8.6899 32.6094H11.4445C12.4205 32.6094 13.2137 31.8277 13.2208 30.8588L13.2594 30.846Z" fill="#EFF2F4"/>
</svg>
