<svg width="35" height="35" viewBox="0 0 35 35" fill="none" xmlns="http://www.w3.org/2000/svg">
<path d="M23.6086 2.86548C28.481 2.86548 31.7542 6.28421 31.7542 11.3712V23.1113C31.7542 28.1984 28.481 31.6171 23.6071 31.6171H11.1482C6.27578 31.6171 3.00256 28.1984 3.00256 23.1113V11.3712C3.00256 6.28421 6.27578 2.86548 11.1482 2.86548H23.6086ZM25.1939 18.032C23.6529 17.0707 22.4632 18.4207 22.1423 18.8524C21.8329 19.2693 21.5669 19.7292 21.2865 20.1891C20.6012 21.3241 19.8163 22.6326 18.4574 23.3937C16.4827 24.487 14.9837 23.4797 13.9052 22.7468C13.5005 22.4738 13.1073 22.2157 12.7155 22.0436C11.7499 21.6267 10.881 22.1015 9.59157 23.7393C8.91503 24.5953 8.24428 25.4439 7.56485 26.2896C7.15863 26.7955 7.25549 27.5758 7.80337 27.9141C8.67796 28.4526 9.74481 28.7419 10.9504 28.7419H23.066C23.7498 28.7419 24.435 28.6485 25.0884 28.4348C26.56 27.9541 27.728 26.8533 28.3381 25.3994C28.8527 24.177 29.1028 22.6934 28.6214 21.4591C28.461 21.0496 28.221 20.6683 27.8842 20.333C27.0009 19.4563 26.1755 18.6373 25.1939 18.032ZM12.3452 8.6158C10.3633 8.6158 8.75289 10.2284 8.75289 12.2098C8.75289 14.1911 10.3633 15.8037 12.3452 15.8037C14.3257 15.8037 15.9375 14.1911 15.9375 12.2098C15.9375 10.2284 14.3257 8.6158 12.3452 8.6158Z" fill="#EFF2F4"/>
</svg>
