<svg width="43" height="41" viewBox="0 0 43 41" fill="none" xmlns="http://www.w3.org/2000/svg">
<rect x="0.876434" y="0.501953" width="41.2091" height="40.1023" rx="8.62548" fill="white"/>
<path fill-rule="evenodd" clip-rule="evenodd" d="M16.0103 11.7803C15.4225 11.2009 15.4225 10.2614 16.0103 9.68199L20.3848 5.3696C20.9726 4.79017 21.9256 4.79017 22.5133 5.36959L26.8879 9.68199C27.4756 10.2614 27.4756 11.2009 26.8879 11.7803L22.5133 16.0927C21.9256 16.6721 20.9726 16.6721 20.3848 16.0927L16.0103 11.7803ZM20.647 21.0905C20.3531 20.8007 20.3531 20.331 20.647 20.0413L20.9375 19.7549C21.2314 19.4652 21.7079 19.4652 22.0018 19.7549L22.2923 20.0413C22.5862 20.331 22.5862 20.8007 22.2923 21.0905L22.0018 21.3769C21.7079 21.6666 21.2314 21.6666 20.9375 21.3769L20.647 21.0905ZM26.3341 19.539C25.7464 20.1184 25.7464 21.0579 26.3341 21.6373L30.7087 25.9497C31.2964 26.5291 32.2494 26.5291 32.8372 25.9497L37.2117 21.6373C37.7995 21.0579 37.7995 20.1184 37.2117 19.539L32.8372 15.2266C32.2494 14.6472 31.2964 14.6472 30.7087 15.2266L26.3341 19.539ZM5.75036 21.6262C5.16258 21.0468 5.16258 20.1074 5.75036 19.5279L10.1249 15.2155C10.7127 14.6361 11.6656 14.6361 12.2534 15.2155L16.6279 19.5279C17.2157 20.1074 17.2157 21.0468 16.6279 21.6262L12.2534 25.9386C11.6656 26.518 10.7127 26.518 10.1249 25.9386L5.75036 21.6262ZM16.0103 29.326C15.4225 29.9054 15.4225 30.8448 16.0103 31.4243L20.3848 35.7367C20.9726 36.3161 21.9256 36.3161 22.5133 35.7367L26.8879 31.4243C27.4756 30.8448 27.4756 29.9054 26.8879 29.326L22.5133 25.0136C21.9256 24.4341 20.9726 24.4341 20.3848 25.0136L16.0103 29.326Z" fill="#2196F3"/>
</svg>
