<svg width="35" height="35" viewBox="0 0 35 35" fill="none" xmlns="http://www.w3.org/2000/svg">
<path d="M16.6491 3.24585C20.218 3.24585 23.1287 6.10663 23.1287 9.62871V16.5147H14.3528C13.7238 16.5147 13.2265 17.0035 13.2265 17.6217C13.2265 18.2254 13.7238 18.7286 14.3528 18.7286H23.1287V25.6002C23.1287 29.1223 20.218 31.9975 16.6199 31.9975H9.49675C5.91325 31.9975 3.00256 29.1367 3.00256 25.6146V9.64308C3.00256 6.10663 5.92787 3.24585 9.51138 3.24585H16.6491ZM26.7804 12.6623C27.2117 12.2166 27.9161 12.2166 28.3474 12.6479L32.5451 16.8313C32.7608 17.0469 32.8758 17.3201 32.8758 17.6219C32.8758 17.9095 32.7608 18.197 32.5451 18.3982L28.3474 22.5816C28.1318 22.7972 27.8442 22.9122 27.5711 22.9122C27.2836 22.9122 26.9961 22.7972 26.7804 22.5816C26.3492 22.1503 26.3492 21.4459 26.7804 21.0146L29.0806 18.7289H23.129V16.515H29.0806L26.7804 14.2293C26.3492 13.798 26.3492 13.0936 26.7804 12.6623Z" fill="white"/>
</svg>
