<svg width="66" height="28" viewBox="0 0 66 28" fill="none" xmlns="http://www.w3.org/2000/svg">
<rect x="0.780899" y="0.835693" width="65.1274" height="26.3127" rx="13.1564" fill="#667A8A"/>
<circle cx="13.7191" cy="13.9922" r="8.62548" fill="#EFF2F4"/>
<path d="M45.104 19.0903C44.1976 19.0903 43.3707 18.8801 42.6231 18.4596C41.8756 18.0297 41.2822 17.4364 40.843 16.6795C40.4132 15.9132 40.1983 15.0536 40.1983 14.1005C40.1983 13.1473 40.4132 12.2923 40.843 11.5355C41.2822 10.7692 41.8756 10.1759 42.6231 9.75537C43.3707 9.32554 44.1976 9.11062 45.104 9.11062C46.0198 9.11062 46.8514 9.32554 47.5989 9.75537C48.3465 10.1759 48.9352 10.7646 49.365 11.5214C49.7948 12.2783 50.0098 13.138 50.0098 14.1005C50.0098 15.0629 49.7948 15.9226 49.365 16.6795C48.9352 17.4364 48.3465 18.0297 47.5989 18.4596C46.8514 18.8801 46.0198 19.0903 45.104 19.0903ZM45.104 17.983C45.7862 17.983 46.3982 17.8242 46.9402 17.5064C47.4915 17.1887 47.9213 16.7355 48.2297 16.1469C48.5474 15.5582 48.7062 14.876 48.7062 14.1005C48.7062 13.3155 48.5474 12.6334 48.2297 12.0541C47.9213 11.4654 47.4962 11.0122 46.9542 10.6945C46.4122 10.3768 45.7955 10.2179 45.104 10.2179C44.4125 10.2179 43.7958 10.3768 43.2539 10.6945C42.7119 11.0122 42.2821 11.4654 41.9643 12.0541C41.656 12.6334 41.5018 13.3155 41.5018 14.1005C41.5018 14.876 41.656 15.5582 41.9643 16.1469C42.2821 16.7355 42.7119 17.1887 43.2539 17.5064C43.8052 17.8242 44.4219 17.983 45.104 17.983ZM59.6549 18.9922H58.3794L53.2494 11.2131V18.9922H51.9739V9.20873H53.2494L58.3794 16.9738V9.20873H59.6549V18.9922Z" fill="#EFF2F4"/>
</svg>
