<svg width="35" height="35" viewBox="0 0 35 35" fill="none" xmlns="http://www.w3.org/2000/svg">
<path d="M18.4093 2.88879C19.4965 2.88879 20.4808 3.49258 21.0244 4.38388C21.2888 4.81515 21.4651 5.34706 21.4211 5.90771C21.3917 6.33899 21.5239 6.77026 21.759 7.17278C22.5082 8.39473 24.1684 8.85475 25.4612 8.16471C26.9157 7.33092 28.7521 7.83407 29.5895 9.25728L30.5738 10.9536C31.4259 12.3768 30.9558 14.2026 29.4867 15.022C28.2379 15.7551 27.7971 17.3796 28.5464 18.6159C28.7815 19.0041 29.0459 19.3347 29.4573 19.536C29.9715 19.8091 30.3682 20.2404 30.6473 20.6717C31.1909 21.563 31.1468 22.6555 30.6179 23.6187L29.5895 25.3438C29.0459 26.2639 28.0322 26.8389 26.9891 26.8389C26.4749 26.8389 25.9019 26.6951 25.4318 26.4076C25.0498 26.1632 24.6091 26.077 24.139 26.077C22.6845 26.077 21.4651 27.2702 21.4211 28.6934C21.4211 30.3466 20.0694 31.6404 18.3799 31.6404H16.3819C14.6777 31.6404 13.3261 30.3466 13.3261 28.6934C13.2967 27.2702 12.0773 26.077 10.6228 26.077C10.138 26.077 9.69727 26.1632 9.32998 26.4076C8.85986 26.6951 8.2722 26.8389 7.77269 26.8389C6.7149 26.8389 5.70119 26.2639 5.15761 25.3438L4.1439 23.6187C3.60032 22.6843 3.57093 21.563 4.11452 20.6717C4.34958 20.2404 4.79032 19.8091 5.28983 19.536C5.70119 19.3347 5.96564 19.0041 6.21539 18.6159C6.94997 17.3796 6.50922 15.7551 5.26045 15.022C3.806 14.2026 3.33587 12.3768 4.17328 10.9536L5.15761 9.25728C6.00971 7.83407 7.83145 7.33092 9.3006 8.16471C10.5788 8.85475 12.2389 8.39473 12.9882 7.17278C13.2232 6.77026 13.3554 6.33899 13.3261 5.90771C13.2967 5.34706 13.4583 4.81515 13.7374 4.38388C14.281 3.49258 15.2653 2.91755 16.3378 2.88879H18.4093ZM17.3956 13.2106C15.089 13.2106 13.2232 15.022 13.2232 17.279C13.2232 19.536 15.089 21.333 17.3956 21.333C19.7022 21.333 21.5239 19.536 21.5239 17.279C21.5239 15.022 19.7022 13.2106 17.3956 13.2106Z" fill="#EFF2F4"/>
</svg>
