<svg width="35" height="35" viewBox="0 0 35 35" fill="none" xmlns="http://www.w3.org/2000/svg">
<path d="M17.3051 20.9117C22.2377 20.9117 26.4495 21.6937 26.4495 24.823C26.4495 27.9509 22.2647 28.7614 17.3051 28.7614C12.3725 28.7614 8.16075 27.9794 8.16075 24.8514C8.16075 21.7222 12.3455 20.9117 17.3051 20.9117ZM25.1917 19.0274C27.0775 18.9924 29.1049 19.2514 29.854 19.4352C31.4412 19.7472 32.4851 20.3842 32.9176 21.3099C33.2832 22.0699 33.2832 22.9516 32.9176 23.7103C32.256 25.1461 30.1231 25.607 29.2941 25.7261C29.1229 25.752 28.9852 25.6031 29.0032 25.4309C29.4267 21.4523 26.058 19.566 25.1866 19.1323C25.1493 19.1128 25.1415 19.0831 25.1454 19.0649C25.148 19.052 25.1634 19.0313 25.1917 19.0274ZM9.21089 19.0247L9.566 19.0279C9.59432 19.0318 9.60848 19.0525 9.61105 19.0642C9.61491 19.0836 9.60719 19.1121 9.57115 19.1328C8.69842 19.5665 5.32978 21.4529 5.75327 25.4302C5.77129 25.6037 5.63485 25.7513 5.46365 25.7267C4.63468 25.6075 2.50177 25.1466 1.84014 23.7108C1.47329 22.9508 1.47329 22.0704 1.84014 21.3104C2.27265 20.3847 3.31529 19.7478 4.90242 19.4344C5.65287 19.2519 7.67894 18.9929 9.566 19.0279L9.21089 19.0247ZM17.3051 5.76013C20.6635 5.76013 23.3563 8.46604 23.3563 11.8452C23.3563 15.2231 20.6635 17.9316 17.3051 17.9316C13.9468 17.9316 11.2539 15.2231 11.2539 11.8452C11.2539 8.46604 13.9468 5.76013 17.3051 5.76013ZM25.52 6.77491C28.7638 6.77491 31.3112 9.84463 30.4436 13.2639C29.8579 15.5659 27.7378 17.0949 25.3758 17.0328C25.139 17.0263 24.906 17.0043 24.6807 16.9655C24.5172 16.937 24.4349 16.7518 24.5275 16.6146C25.4286 15.2811 25.9422 13.6769 25.9422 11.955C25.9422 10.158 25.381 8.48262 24.4065 7.10894C24.3756 7.06622 24.3525 7.00019 24.3834 6.95099C24.4091 6.91086 24.4567 6.89014 24.5018 6.87978C24.83 6.81246 25.1673 6.77491 25.52 6.77491ZM9.23583 6.77478C9.58852 6.77478 9.92578 6.81233 10.2553 6.87965C10.2991 6.89001 10.348 6.91202 10.3737 6.95086C10.4033 7.00006 10.3814 7.06609 10.3506 7.10882C9.37613 8.48249 8.81491 10.1578 8.81491 11.9549C8.81491 13.6768 9.32851 15.2809 10.2296 16.6145C10.3222 16.7517 10.2399 16.9368 10.0764 16.9653C9.84983 17.0055 9.61813 17.0262 9.38128 17.0326C7.01925 17.0948 4.89921 15.5658 4.31352 13.2638C3.44466 9.84451 5.99205 6.77478 9.23583 6.77478Z" fill="#EFF2F4"/>
</svg>
